<svg xmlns="http://www.w3.org/2000/svg" width="20" height="17" viewBox="0 0 20 17">
    <path d="M19.825 2.113c-.06-.064-.132-.116-.217-.153-.304-.132-.651-.008-.812.275l-1.745 4.128v.021l-1.355 3.207h-9.03L5.303 6.37 3.392 2.385l.001-.001-.006.004L2.525.392C2.423.154 2.191 0 1.935 0H.645C.289 0 0 .293 0 .654c0 .36.289.653.645.653h.868l3.92 9.083c-.305.376-.488.856-.488 1.38 0 .593.236 1.131.617 1.525-.38.393-.617.932-.617 1.525 0 1.202.965 2.18 2.15 2.18 1.186 0 2.151-.978 2.151-2.18 0-.31-.065-.604-.18-.872h4.66c-.115.268-.18.562-.18.872 0 1.202.965 2.18 2.15 2.18 1.187 0 2.151-.978 2.151-2.18 0-1.202-.964-2.18-2.15-2.18l-.057.002v-.001H7.194l-.014-.01c-.028.004-.055.01-.084.01-.475 0-.86-.39-.86-.872s.385-.872.86-.872H15.697c.515 0 .982-.312 1.185-.793l2.58-6.103c.024-.056.044-.113.06-.172l.426-1.012c.104-.245.047-.52-.123-.704zM7.955 14.821c0 .482-.385.872-.86.872s-.86-.39-.86-.872.385-.872.86-.872.86.39.86.872zm8.601 0c0 .482-.385.872-.86.872s-.86-.39-.86-.872.385-.872.86-.872.86.39.86.872z"/>
</svg>
